 <svg  version="1.0" xmlns="http://www.w3.org/2000/svg"  width="300.000000pt" height="300.000000pt" viewBox="0 0 300.000000 300.000000"  preserveAspectRatio="xMidYMid meet">  <g transform="translate(0.000000,300.000000) scale(0.100000,-0.100000)" fill="#2c00cc" stroke="none"> <path d="M1325 2439 c-25 -5 -1 -6 65 -3 334 15 617 -90 826 -307 86 -91 124 -146 175 -254 108 -230 114 -474 19 -727 l-21 -58 -62 7 c-34 3 -63 7 -64 7 -1 1 15 38 37 82 49 100 80 225 80 326 0 83 -16 116 -23 46 l-4 -43 -3 45 -3 45 -7 -60 -7 -60 -1 58 c-1 31 -4 57 -5 57 -2 0 -18 -7 -35 -16 -23 -11 -32 -22 -32 -40 0 -13 -5 -24 -11 -24 -5 0 -7 5 -4 10 3 6 1 10 -4 10 -6 0 -11 22 -11 53 -1 28 -6 62 -13 74 -10 18 -12 -7 -11 -135 1 -86 -1 -139 -3 -117 -4 33 -7 36 -13 20 -7 -17 -9 -17 -9 -2 -1 10 -9 17 -20 17 -11 0 -22 -8 -24 -17 -4 -15 -5 -15 -6 2 -1 16 -3 17 -10 6 -6 -9 -10 10 -13 57 l-3 71 33 6 c30 5 32 9 32 45 0 22 5 40 10 40 6 0 10 7 10 15 0 16 -17 19 -44 9 -11 -4 -16 -19 -16 -45 0 -28 -4 -39 -15 -39 -13 0 -15 22 -15 134 0 221 5 217 -269 218 l-201 0 -67 69 c-37 38 -72 69 -78 69 -14 0 -48 -37 -65 -70 -10 -21 -10 -23 1 -12 19 18 94 15 110 -5 8 -9 27 -22 44 -29 l30 -13 -35 -2 c-19 -2 -161 -3 -315 -4 -302 -1 -314 -3 -334 -55 -5 -14 -13 -131 -18 -260 -5 -156 -10 -215 -14 -175 -6 61 -8 65 -14 32 -6 -30 -14 -31 -24 -3 -16 40 -29 31 -34 -21 l-3 -48 -2 53 c-1 28 -6 52 -11 52 -6 0 -12 21 -14 48 -2 30 -4 17 -5 -37 -2 -78 -3 -83 -22 -78 -11 3 -20 1 -20 -3 0 -5 10 -10 23 -12 20 -3 20 -4 -5 -9 l-28 -6 0 94 c0 60 -4 92 -10 88 -5 -3 -10 -15 -10 -26 0 -14 -7 -19 -24 -19 -14 0 -27 4 -31 9 -13 22 28 170 71 258 69 142 148 234 320 371 l29 24 -30 -18 c-145 -82 -292 -255 -363 -426 -83 -200 -82 -431 3 -616 l34 -72 -28 0 c-25 0 -31 7 -51 55 -12 30 -31 85 -41 122 -11 39 -16 51 -13 28 3 -22 17 -76 31 -120 29 -92 29 -89 9 -93 -29 -6 -81 175 -95 332 l-8 91 -2 -71 c-1 -87 22 -214 55 -302 20 -55 26 -84 33 -169 2 -28 41 -53 83 -53 39 0 47 -5 118 -78 118 -121 247 -200 407 -249 83 -25 100 -27 278 -27 179 0 195 1 279 27 169 52 348 162 443 273 43 49 51 54 88 54 60 0 85 27 85 91 0 30 10 72 25 108 48 114 66 200 72 336 4 101 2 150 -11 214 -58 283 -245 526 -514 664 -95 49 -220 90 -322 107 -74 11 -255 11 -315 -1z m724 -533 c21 -19 21 -26 21 -388 0 -202 -4 -368 -9 -368 -4 0 -9 163 -9 361 -1 258 -5 365 -13 375 -10 12 -98 14 -543 12 l-531 -3 -3 -230 c-1 -133 -7 -234 -12 -239 -7 -7 -10 71 -10 225 0 246 3 262 45 272 11 3 250 4 531 3 488 -1 513 -2 533 -20z m-32 -43 c4 -10 8 -173 8 -363 l0 -345 -427 -3 -427 -2 -3 97 c-3 91 -5 99 -25 108 -13 5 -23 15 -23 22 0 22 -44 43 -92 43 l-48 0 0 223 c0 123 3 227 7 230 3 4 235 7 514 7 474 0 509 -1 516 -17z m293 -375 c0 -39 -4 -68 -10 -68 -5 0 -10 -5 -10 -11 0 -5 4 -7 10 -4 6 4 7 -2 1 -18 -6 -16 -6 -28 2 -36 8 -8 8 -11 0 -11 -18 0 -23 27 -23 124 0 76 3 93 15 93 12 0 15 -15 15 -69z m-51 -65 c-2 -79 -6 -70 -11 25 -2 28 0 52 5 52 4 0 6 -35 6 -77z m-92 -20 c-4 -3 -10 -3 -14 0 -3 4 0 7 7 7 7 0 10 -3 7 -7z m-1300 -30 c-4 -3 -7 0 -7 7 0 7 3 10 7 7 3 -4 3 -10 0 -14z m1300 10 c-4 -3 -10 -3 -14 0 -3 4 0 7 7 7 7 0 10 -3 7 -7z m-1072 -13 c4 -6 -17 -10 -54 -10 -34 0 -61 4 -61 10 0 6 24 10 54 10 30 0 58 -4 61 -10z m-265 -60 l0 -60 -74 0 -74 0 -11 50 c-6 28 -11 55 -11 60 0 6 38 10 85 10 l85 0 0 -60z m310 -77 c0 -53 -4 -83 -9 -74 -5 7 -11 9 -14 4 -8 -12 -145 -15 -152 -2 -9 13 -53 11 -58 -3 -2 -7 -8 5 -13 27 l-9 40 -6 -50 c-5 -39 -6 -29 -7 48 l-2 97 135 0 135 0 0 -87z m-342 0 c-21 -2 -55 -2 -75 0 -21 2 -4 4 37 4 41 0 58 -2 38 -4z m1471 -65 c-21 -41 -33 -57 -39 -48 -5 7 -19 11 -34 8 -14 -3 -26 -1 -26 4 0 6 16 8 35 6 37 -4 41 1 25 33 -23 42 -92 13 -83 -35 4 -21 1 -26 -16 -26 -17 0 -21 6 -20 28 2 23 2 24 6 5 2 -13 9 -23 14 -23 13 0 11 13 -6 36 -8 10 -15 31 -15 47 l0 27 95 0 95 0 -31 -62z m-1439 -18 l0 -50 -45 0 c-43 0 -45 1 -65 44 -11 25 -20 47 -20 50 0 4 29 6 65 6 l65 0 0 -50z m193 -27 c-7 -2 -21 -2 -30 0 -10 3 -4 5 12 5 17 0 24 -2 18 -5z m64 -10 c-4 -3 -10 -3 -14 0 -3 4 0 7 7 7 7 0 10 -3 7 -7z m46 0 c-7 -2 -19 -2 -25 0 -7 3 -2 5 12 5 14 0 19 -2 13 -5z m922 -13 c4 -7 -143 -10 -434 -10 -287 0 -441 3 -441 10 0 7 151 10 434 10 279 0 437 -4 441 -10z m305 -83 c0 -24 -7 -48 -17 -59 -15 -17 -55 -18 -841 -18 -929 0 -862 -6 -862 75 l0 43 860 -1 860 0 0 -40z m-1474 -186 c64 -63 98 -87 174 -124 137 -66 190 -78 375 -83 119 -4 178 -1 230 9 l70 15 -70 -6 c-38 -4 -128 -7 -200 -7 -155 1 -250 20 -351 71 -79 39 -64 38 52 -5 185 -68 414 -68 619 0 112 37 180 75 272 150 67 55 76 59 124 59 l50 0 -22 -31 c-38 -53 -179 -157 -284 -209 -159 -78 -237 -95 -440 -94 -155 0 -178 3 -258 27 -178 55 -360 170 -439 280 -18 26 -19 27 -1 27 10 0 55 -35 99 -79z m524 -56 l0 -95 -29 0 c-112 0 -332 86 -432 169 l-24 20 243 1 242 0 0 -95z"/> <path d="M1420 1746 l-55 -12 -3 -78 c-2 -62 1 -86 18 -120 20 -42 94 -106 123 -106 25 0 103 67 121 103 11 24 16 62 16 116 0 80 0 81 -27 87 -16 3 -44 10 -63 15 -42 11 -58 10 -130 -5z m134 -157 c39 -72 28 -81 -15 -13 -11 19 -25 32 -30 29 -5 -4 -6 1 -3 9 3 9 2 16 -4 16 -13 0 -23 -26 -16 -44 3 -8 1 -17 -5 -21 -7 -4 -9 1 -5 12 3 10 -10 0 -30 -22 l-37 -40 17 35 c34 71 67 121 77 117 7 -2 29 -37 51 -78z"/> <path d="M2293 1485 c0 -33 2 -45 4 -27 2 18 2 45 0 60 -2 15 -4 0 -4 -33z"/> <path d="M982 1274 c-27 -19 -28 -36 -3 -58 23 -21 57 -14 66 14 12 39 -30 68 -63 44z"/> <path d="M998 1183 c7 -3 16 -2 19 1 4 3 -2 6 -13 5 -11 0 -14 -3 -6 -6z"/> <path d="M660 1006 c0 -11 124 -14 758 -18 846 -4 922 -3 922 18 0 12 -128 14 -840 14 -705 0 -840 -2 -840 -14z"/> <path d="M1743 653 c4 -3 10 -3 14 0 3 4 0 7 -7 7 -7 0 -10 -3 -7 -7z"/> <path d="M1258 2423 c7 -3 16 -2 19 1 4 3 -2 6 -13 5 -11 0 -14 -3 -6 -6z"/> <path d="M1213 2413 c4 -3 10 -3 14 0 3 4 0 7 -7 7 -7 0 -10 -3 -7 -7z"/> <path d="M1598 2334 c51 -7 128 -23 170 -34 98 -27 289 -119 322 -156 l25 -27 -35 20 c-70 42 -202 105 -207 99 -4 -3 -2 -6 4 -6 13 0 215 -123 259 -158 64 -50 146 -164 200 -277 59 -125 74 -184 74 -290 0 -50 4 -75 12 -75 17 0 3 179 -22 274 -65 247 -269 478 -502 570 -111 43 -271 77 -358 75 -19 -1 7 -7 58 -15z"/> <path d="M1313 2236 c-140 -32 -336 -151 -421 -254 -69 -86 -68 -86 18 -1 154 152 335 237 527 247 167 8 320 -26 462 -104 104 -57 165 -109 283 -243 162 -183 151 -172 138 -134 -7 17 -29 56 -50 85 -21 29 -59 83 -84 120 -49 72 -73 95 -61 59 3 -11 4 -21 1 -21 -3 0 -33 22 -66 48 -87 71 -211 138 -320 174 -83 27 -111 31 -230 34 -92 3 -155 -1 -197 -10z"/> <path d="M1843 2243 c4 -3 10 -3 14 0 3 4 0 7 -7 7 -7 0 -10 -3 -7 -7z"/> <path d="M714 2058 c-4 -7 -3 -8 4 -4 12 7 16 16 8 16 -3 0 -8 -5 -12 -12z"/> <path d="M1210 2015 l-23 -25 46 0 c51 0 57 8 29 33 -24 22 -24 22 -52 -8z"/> <path d="M664 1978 c-4 -7 -3 -8 4 -4 12 7 16 16 8 16 -3 0 -8 -5 -12 -12z"/> <path d="M814 1878 c-4 -7 -3 -8 4 -4 12 7 16 16 8 16 -3 0 -8 -5 -12 -12z"/> <path d="M600 1850 c0 -7 3 -10 7 -7 3 4 3 10 0 14 -4 3 -7 0 -7 -7z"/> <path d="M785 1830 c-9 -16 -13 -30 -11 -30 3 0 12 14 21 30 9 17 13 30 11 30 -3 0 -12 -13 -21 -30z"/> <path d="M848 1813 c6 -2 18 -2 25 0 6 3 1 5 -13 5 -14 0 -19 -2 -12 -5z"/> <path d="M2310 1796 c0 -2 6 -19 14 -37 7 -19 11 -40 9 -46 -3 -7 0 -13 6 -13 16 0 13 36 -4 70 -14 26 -25 38 -25 26z"/> <path d="M2178 1773 c7 -3 16 -2 19 1 4 3 -2 6 -13 5 -11 0 -14 -3 -6 -6z"/> <path d="M572 1580 c0 -14 2 -19 5 -12 2 6 2 18 0 25 -3 6 -5 1 -5 -13z"/> <path d="M2144 1509 c-10 -17 13 -36 27 -22 12 12 4 33 -11 33 -5 0 -12 -5 -16 -11z"/> <path d="M2148 1463 c7 -3 16 -2 19 1 4 3 -2 6 -13 5 -11 0 -14 -3 -6 -6z"/> <path d="M573 1385 c0 -22 2 -30 4 -17 2 12 2 30 0 40 -3 9 -5 -1 -4 -23z"/> </g> </svg> 